<svg height="368pt" viewBox="0 0 368 368" width="368pt" xmlns="http://www.w3.org/2000/svg"><path d="m216 200v-160c0-17.679688-14.320312-32-32-32s-32 14.320312-32 32v232l-80 24v64l112-32 112 32v-64l-80-24zm0 0" fill="#cce4ff"/><path d="m361.734375 144.183594-137.734375-30.597656v-73.585938c0-22.054688-17.945312-40-40-40s-40 17.945312-40 40v73.585938l-137.734375 30.597656c-3.664063.824218-6.265625 4.0625-6.265625 7.816406v48c0 4.425781 3.574219 8 8 8h136v58.046875l-74.296875 22.289063c-3.382813 1.015624-5.703125 4.136718-5.703125 7.664062v64c0 2.503906 1.175781 4.871094 3.175781 6.390625 2.007813 1.503906 4.609375 1.976563 7.015625 1.304687l109.808594-31.375 109.808594 31.375c.710937.199219 1.457031.304688 2.191406.304688 1.71875 0 3.414062-.550781 4.824219-1.609375 2-1.519531 3.175781-3.886719 3.175781-6.390625v-64c0-3.527344-2.320312-6.648438-5.703125-7.664062l-74.296875-22.289063v-58.046875h136c4.425781 0 8-3.574219 8-8v-48c0-3.753906-2.601562-6.992188-6.265625-7.816406zm-345.734375 47.816406v-33.585938l128-28.4375v62.023438zm272 109.953125v47.4375l-101.808594-29.085937c-.710937-.199219-1.449218-.304688-2.191406-.304688s-1.480469.105469-2.191406.304688l-101.808594 29.085937v-47.4375l74.296875-22.289063c3.382813-1.015624 5.703125-4.136718 5.703125-7.664062v-232c0-13.230469 10.769531-24 24-24s24 10.769531 24 24v232c0 3.527344 2.320312 6.648438 5.703125 7.664062zm64-109.953125h-128v-62.023438l128 28.4375zm0 0" fill="#007aff"/></svg>